<svg width="28" height="38" viewBox="0 0 28 38" fill="none" xmlns="http://www.w3.org/2000/svg">
<path d="M14.7462 0.0360563C14.2174 -0.0120188 13.7366 -0.0120188 13.2078 0.0360563C8.59258 0.276432 4.55427 2.68019 2.10244 6.7185C-0.39747 10.8049 -0.68592 15.8528 1.33323 20.1795L12.3905 36.8616C12.727 37.4385 13.3039 37.775 13.977 37.775C14.65 37.775 15.2269 37.4385 15.5635 36.8616L26.5246 20.3238L26.6207 20.1795C28.5918 15.8528 28.3034 10.853 25.8515 6.7185C23.3997 2.72826 19.3614 0.276432 14.7462 0.0360563ZM24.89 19.3142L13.977 35.7078L3.06394 19.3142C1.38131 15.5643 1.62168 11.2856 3.78506 7.72807C5.90037 4.26667 9.36178 2.19944 13.3039 1.95906C13.7366 1.95906 14.2174 1.95906 14.65 1.95906C18.6403 2.15136 22.1017 4.26667 24.1689 7.72807C26.3323 11.2376 26.5727 15.5643 24.89 19.3142Z" fill="#038C73"/>
<path d="M13.977 7.34349C10.4194 7.34349 7.48685 10.2761 7.48685 13.8336C7.48685 17.3912 10.4194 20.3238 13.977 20.3238C17.5346 20.3238 20.4671 17.3912 20.4671 13.8336C20.4671 10.2761 17.5346 7.34349 13.977 7.34349ZM13.977 18.4008C11.4771 18.4008 9.40986 16.3335 9.40986 13.8336C9.40986 11.3337 11.4771 9.26649 13.977 9.26649C16.4769 9.26649 18.5441 11.3337 18.5441 13.8336C18.5441 16.3335 16.4769 18.4008 13.977 18.4008Z" fill="#038C73"/>
</svg>
