<svg width="157" height="26" viewBox="0 0 157 26" fill="none" xmlns="http://www.w3.org/2000/svg">
<path d="M14.1345 19.8673C13.0549 21.5644 11.1766 22.6247 8.84701 22.6247C5.19056 22.6247 2.78078 19.9384 2.78078 16.2766C2.78078 12.4691 5.17719 9.92852 8.84701 9.92852C10.7989 9.92852 12.4801 10.7381 13.6098 12.0524L15.4246 10.1724C13.8337 8.41095 11.5175 7.33374 8.84701 7.33374C3.67985 7.33374 0 10.9109 0 16.2766C0 21.4323 3.69322 25.2228 8.84701 25.2228C11.9152 25.2228 14.432 23.9119 15.9861 21.788L14.1345 19.8673Z" fill="#038C73"/>
<path d="M133.755 24.8639V17.4149H124.857V24.8639H122.033V7.67603H124.857V14.7659H133.755V7.67603H136.579V24.8639H133.755Z" fill="#F65E64"/>
<path d="M153.036 24.8639L146.435 17.5606H143.364C143.364 21.6763 143.364 24.1119 143.397 24.8639H140.573C140.61 23.1431 140.61 20.2807 140.61 16.27C140.61 12.2592 140.61 9.39685 140.573 7.67603H143.397C143.364 9.14618 143.364 11.5445 143.364 14.9082H146.505L152.892 7.67603H156.425L149.045 16.0193L156.99 24.8639H153.036Z" fill="#F65E64"/>
<path d="M118.313 21.9575C117.972 22.5299 117.478 22.8246 116.903 22.6756C116.358 22.5367 115.994 22.015 115.994 21.4426V13.0112C115.994 9.71862 113.203 7.32031 109.426 7.32031C107.09 7.32031 105.141 8.09604 103.952 9.346L105.84 11.2599C106.458 10.4571 107.685 9.93203 109.216 9.93203C111.508 9.93203 113.17 11.4022 113.17 13.3703V14.6575C110.556 14.9454 108.721 15.1961 107.625 15.4468C104.236 16.1615 102.224 17.9874 102.224 20.7448C102.224 23.431 104.343 25.2196 107.591 25.2196C109.884 25.2196 111.756 24.7352 113.24 22.9805C113.557 24.5218 115.038 25.2196 116.91 25.2196C118.176 25.2196 119.286 24.6606 120.065 23.7325L118.313 21.9575ZM113.17 19.8064C111.933 21.5239 109.991 22.5638 107.909 22.5638C106.248 22.5638 105.155 21.8186 105.155 20.4229C105.155 19.278 106.037 18.4277 107.555 17.9975C108.721 17.6757 110.593 17.5402 113.17 17.2184V19.8064Z" fill="#F65E64"/>
<path d="M31.2568 24.8705L24.6558 17.5672H21.5843C21.5843 21.6829 21.5843 24.1185 21.6177 24.8705H18.7935C18.8302 23.1531 18.8302 20.2873 18.8302 16.2766C18.8302 12.2659 18.8302 9.40347 18.7935 7.68604H21.6177C21.5843 9.1528 21.5843 11.5511 21.5843 14.9182H24.726L31.1164 7.68604H34.6459L27.2661 16.0259L35.2107 24.8705H31.2568Z" fill="#038C73"/>
<path d="M45.114 7.99098C42.8011 7.89952 40.6821 8.74977 39.0979 10.1962C39.3987 7.73353 41.0698 5.69768 43.3092 4.95244C46.0899 4.02767 49.6896 5.38942 53.2758 2.06295L51.2404 0C48.6301 2.50332 45.4449 1.42273 42.9449 2.10699C39.138 3.14694 36.3238 6.67665 36.2837 10.894V16.6019C36.2837 21.3612 40.0872 25.2229 44.7798 25.2229C49.5826 25.2229 53.4563 21.1817 53.2725 16.2665C53.1054 11.8019 49.5191 8.16035 45.114 7.99098ZM45.2477 22.3944C41.7216 22.6823 38.7871 19.7048 39.0678 16.1276C39.2884 13.3127 41.5378 11.0329 44.3152 10.8093C47.8413 10.5248 50.7758 13.499 50.4951 17.0761C50.2711 19.8911 48.0251 22.1708 45.2477 22.3944Z" fill="#038C73"/>
<path d="M92.0128 7.99098C89.6966 7.89952 87.5776 8.74977 85.9934 10.1962C86.2942 7.73353 87.9687 5.69768 90.208 4.95244C92.9854 4.02767 96.5851 5.38942 100.171 2.06295L98.1392 0C95.5289 2.50332 92.3404 1.42273 89.8404 2.10699C86.0335 3.14694 83.2193 6.67665 83.1792 10.894V16.6019C83.1792 21.3612 86.9827 25.2229 91.6786 25.2229C96.4815 25.2229 100.352 21.1817 100.168 16.2665C100.001 11.8019 96.4146 8.16035 92.0128 7.99098ZM92.1432 22.3944C88.6171 22.6823 85.6826 19.7048 85.9633 16.1276C86.1839 13.3127 88.4333 11.0329 91.2107 10.8093C94.7368 10.5248 97.6713 13.499 97.3906 17.0761C97.17 19.8911 94.9206 22.1708 92.1432 22.3944Z" fill="#F65E64"/>
<path d="M71.8154 14.0138L65.5252 6.93066L63.4263 8.84457L69.9136 16.1513L71.8154 14.0138Z" fill="#038C73"/>
<path d="M63.3765 23.5157L65.4754 25.433L73.7141 16.1514L71.8157 14.0139L63.3765 23.5157Z" fill="#F65E64"/>
</svg>
