<svg width="36" height="41" viewBox="0 0 36 41" fill="none" xmlns="http://www.w3.org/2000/svg">
<path d="M3.52452 0H32.4755C33.4458 0 34.3277 0.395683 34.9657 1.03267C35.6037 1.66965 36 2.55024 36 3.51891V37.4808C36 38.4469 35.6037 39.3261 34.9657 39.9633V39.9673C34.3277 40.6043 33.4458 41 32.4755 41H3.52452C2.55431 41 1.67231 40.6043 1.03431 39.9673L0.974812 39.9025C0.371875 39.2707 0 38.4165 0 37.4808V3.51891C0 2.55024 0.396312 1.66965 1.03431 1.03267L1.09925 0.973264C1.73208 0.371285 2.58764 0 3.52452 0ZM13.3281 17.7701C12.7729 17.7701 12.3222 17.3202 12.3222 16.7659C12.3222 16.2115 12.7729 15.7616 13.3281 15.7616H14.6145V15.1206H13.3281C12.7729 15.1206 12.3222 14.6707 12.3222 14.1164C12.3222 13.562 12.7729 13.1121 13.3281 13.1121H14.6145V7.45501C14.6145 6.90066 15.0651 6.45076 15.6203 6.45076H19.8067C20.872 6.45076 21.8408 6.88574 22.5415 7.58528L22.6006 7.64956C23.2665 8.3445 23.6778 9.28478 23.6778 10.316V11.2554C23.6778 12.3188 23.2418 13.286 22.5411 13.9855C21.8399 14.6856 20.8717 15.1206 19.8067 15.1206H16.6262V15.7616H21.9716C22.5268 15.7616 22.9774 16.2115 22.9774 16.7659C22.9774 17.3202 22.5268 17.7701 21.9716 17.7701H16.6262V19.4097C16.6262 19.964 16.1756 20.4139 15.6203 20.4139C15.0651 20.4139 14.6145 19.964 14.6145 19.4097V17.7701H13.3281ZM16.6262 8.45926V13.1121H19.8067C20.3162 13.1121 20.7809 12.9024 21.1186 12.5652C21.456 12.2284 21.6661 11.7641 21.6661 11.2554V10.316C21.6661 9.8265 21.4741 9.37889 21.162 9.04634L21.1189 9.00558C20.7815 8.66873 20.3165 8.45926 19.8067 8.45926H16.6262ZM13.4689 26.8337C12.9137 26.8337 12.4631 26.3838 12.4631 25.8294C12.4631 25.2751 12.9137 24.8252 13.4689 24.8252H22.5308C23.086 24.8252 23.5366 25.2751 23.5366 25.8294C23.5366 26.3838 23.086 26.8337 22.5308 26.8337H13.4689ZM13.4689 35.056C12.9137 35.056 12.4631 34.606 12.4631 34.0517C12.4631 33.4973 12.9137 33.0474 13.4689 33.0474H22.5308C23.086 33.0474 23.5366 33.4973 23.5366 34.0517C23.5366 34.606 23.086 35.056 22.5308 35.056H13.4689ZM8.86126 30.898C8.30603 30.898 7.85541 30.4481 7.85541 29.8938C7.85541 29.3394 8.30603 28.8895 8.86126 28.8895H27.1387C27.694 28.8895 28.1446 29.3394 28.1446 29.8938C28.1446 30.4481 27.694 30.898 27.1387 30.898H8.86126ZM32.4755 2.00851H3.52452C3.1285 2.00851 2.76637 2.16173 2.49594 2.41164L2.45687 2.45297C2.18242 2.72699 2.0117 3.10459 2.0117 3.51891V37.4808C2.0117 37.8765 2.16519 38.238 2.4155 38.508L2.45687 38.547C2.73132 38.821 3.10954 38.9915 3.52452 38.9915H32.4755C32.8905 38.9915 33.2687 38.821 33.5431 38.547C33.8184 38.2753 33.9883 37.8969 33.9883 37.4808V3.51891C33.9883 3.10459 33.8176 2.72699 33.5431 2.45297C33.2687 2.17895 32.8905 2.00851 32.4755 2.00851Z" fill="#038C73"/>
</svg>
