<svg width="30" height="41" viewBox="0 0 30 41" fill="none" xmlns="http://www.w3.org/2000/svg">
<path d="M7.91509 5.71628H23.0856V3.97885C23.0856 3.66401 23.0515 3.38334 22.9842 3.14107C22.8813 2.76975 22.6958 2.48202 22.4337 2.29396C22.1465 2.08755 21.7441 1.97658 21.2314 1.97658C20.795 1.97658 20.2922 2.05621 19.7253 2.22393L7.91509 5.71628ZM25.0007 5.71628H26.9614C27.7952 5.71628 28.5544 6.06924 29.1046 6.63652L29.1084 6.64047C29.658 7.20832 30 7.99189 30 8.85255V37.8637C30 38.7244 29.6583 39.5079 29.1084 40.0758L29.1046 40.0798C28.5544 40.647 27.7952 41 26.9614 41H3.03888C2.20502 41 1.44585 40.6473 0.895692 40.0798L0.891845 40.0758C0.341959 39.5079 0.000267163 38.7244 0.000267163 37.8637V8.87825L0 8.85284L0.000267163 8.81499L0.000534327 8.81218L0.00219074 8.73904L0.0024579 8.7317L0.00382044 8.7012L0.00438148 8.69161L0.00574401 8.66337L0.00657222 8.65179L0.00820192 8.62552L0.00929729 8.61197L0.0112209 8.58769C0.0254468 8.41064 0.0544287 8.23784 0.0962857 8.07039L0.0984765 8.06248L0.105877 8.03284L0.107774 8.02549L0.116002 7.99556C0.251696 7.48786 0.498722 7.00445 0.820993 6.58259C1.32547 5.92326 2.02745 5.40285 2.77732 5.18147L19.2017 0.324725C19.9458 0.104759 20.6246 0 21.2314 0C22.1473 0 22.9171 0.235491 23.5258 0.672598C24.1602 1.12806 24.5975 1.78203 24.8242 2.60062C24.9411 3.02192 25.0007 3.48358 25.0007 3.97885V5.71628ZM11.2563 35.923C10.7277 35.923 10.2988 35.4803 10.2988 34.9347C10.2988 34.3892 10.7277 33.9464 11.2563 33.9464H18.744C19.2726 33.9464 19.7015 34.3892 19.7015 34.9347C19.7015 35.4803 19.2726 35.923 18.744 35.923H11.2563ZM7.44862 32.3711C6.92527 32.3711 6.5007 31.9283 6.5007 31.3828C6.5007 30.8373 6.92527 30.3945 7.44862 30.3945H22.5516C23.075 30.3945 23.4996 30.8373 23.4996 31.3828C23.4996 31.9283 23.075 32.3711 22.5516 32.3711H7.44862ZM26.9614 7.69286H3.03888C2.73111 7.69286 2.45015 7.82388 2.24634 8.03424C2.05839 8.22823 1.93527 8.48998 1.91749 8.77857L1.91695 8.78619L1.91666 8.79325L1.91612 8.80286V8.80793L1.91556 8.81951V8.82291L1.91529 8.85255V37.8637C1.91529 38.1831 2.04143 38.4739 2.24415 38.684C2.44769 38.8932 2.72946 39.0234 3.03888 39.0234H26.9614C27.2708 39.0234 27.5526 38.8932 27.7561 38.684C27.9589 38.4739 28.085 38.1831 28.085 37.8637V8.85255C28.085 8.53319 27.9589 8.24235 27.7561 8.03227C27.5526 7.82304 27.2708 7.69286 26.9614 7.69286Z" fill="#038C73"/>
<path fill-rule="evenodd" clip-rule="evenodd" d="M20.5874 17.8796C21.2267 16.3209 20.8358 13.9533 19.9565 12.8854C19.5617 14.9232 16.6657 16.6897 16.6657 16.6897C16.6657 16.6897 16.8632 16.0781 16.6 16.2142C16.3368 16.35 16.0077 16.0781 16.2709 15.4668C16.5341 14.8555 17.258 15.399 17.258 15.399L17.4555 15.1951C17.653 14.9235 16.9948 14.7196 17.1923 14.5838C17.3898 14.448 17.9162 14.7877 17.9162 14.7877C17.9162 14.7877 17.9821 14.7877 18.0481 14.3799C18.114 13.9725 17.3239 14.1764 17.4558 13.6328C17.5873 13.0892 17.5214 13.2804 16.7975 13.2126C16.0737 13.1446 16.4028 13.9471 16.4028 13.9471H16.3368C15.8102 13.9471 15.6789 13.1446 15.9421 12.601C16.2052 12.0575 15.2838 12.1961 15.2838 12.1961L15.0204 11.5195H14.9802L14.717 12.1007C14.717 12.1007 13.7953 12.1746 14.0588 12.7182C14.3222 13.2618 14.1904 13.9471 13.664 13.9471H13.5981C13.5981 13.9471 13.9272 13.1446 13.2033 13.2126C12.4792 13.2807 12.4135 13.185 12.5451 13.7282C12.6769 14.2718 11.8871 14.0202 11.9528 14.4279C12.0187 14.8354 12.0844 14.8117 12.0844 14.8117C12.0844 14.8117 12.611 14.4601 12.8085 14.5957C13.006 14.7315 12.3478 14.9294 12.5454 15.2014L12.7429 15.4021C12.7429 15.4021 13.4668 14.8572 13.7299 15.4685C13.9931 16.0798 13.6643 16.3509 13.4008 16.2151C13.1374 16.0792 13.3352 16.6903 13.3352 16.6903C13.3352 16.6903 10.4388 14.9235 10.0438 12.8856C9.16451 13.9533 8.77386 16.3209 9.41293 17.8796C9.23237 17.935 9.01241 18.0705 9.3199 18.3879C9.78061 18.8634 9.91218 18.8634 10.1754 19.5428C10.4385 20.2222 10.8995 21.4448 11.0308 21.6487C11.0434 21.6682 11.0585 21.697 11.0757 21.7334C10.8497 21.9229 10.7586 22.2603 11.0968 22.5317C11.2131 22.6251 11.337 22.6655 11.4642 22.6717C11.5728 22.9177 11.6787 23.1167 11.755 23.1433C11.9109 23.1966 12.025 22.9117 11.9695 22.5557C12.3246 22.4018 12.6583 22.155 12.8739 22.192C13.269 22.26 12.216 22.8713 12.6767 23.483C13.1275 24.0813 14.5244 24.0293 14.9534 24.4729C14.9673 24.5077 14.9829 24.5232 15.0001 24.517C15.0177 24.5232 15.0332 24.508 15.0472 24.4729C15.4762 24.0293 16.8731 24.0816 17.3239 23.483C17.7846 22.8713 16.7316 22.26 17.1267 22.192C17.3422 22.155 17.676 22.4018 18.0311 22.5557C17.9756 22.9117 18.0896 23.1966 18.2453 23.1433C18.3219 23.1167 18.4278 22.9177 18.5364 22.6717C18.6633 22.6658 18.7873 22.6251 18.9038 22.5317C19.2417 22.2603 19.1508 21.9226 18.9249 21.7331C18.9418 21.697 18.9569 21.6682 18.9694 21.6487C19.1013 21.4448 19.562 20.2222 19.8252 19.5428C20.0884 18.8631 20.22 18.8634 20.6807 18.3879C20.9879 18.0705 20.7679 17.935 20.5874 17.8796ZM12.3476 20.2222C11.0311 20.9693 12.808 21.7167 12.808 21.7167C12.808 21.7167 12.1501 21.9203 11.6894 21.6487C11.6483 21.6247 11.6051 21.6083 11.561 21.5984C11.1906 20.8747 10.5923 19.7424 10.1508 18.9103C10.1592 18.917 10.1669 18.9247 10.1754 18.9314C11.755 20.1541 13.0715 19.407 13.203 18.9992C13.3346 18.5918 13.6637 19.475 12.3476 20.2222ZM15.6127 14.1295C15.547 14.5372 15.0204 15.6133 15.0204 15.6133C15.0204 15.6133 14.4538 14.5556 14.3879 14.1478C14.322 13.7404 14.717 13.9471 14.8483 13.9471C14.8929 13.9471 15.1077 13.9471 15.152 13.9471C15.2836 13.9471 15.6786 13.722 15.6127 14.1295ZM18.4393 21.5981C18.3952 21.608 18.3523 21.6244 18.3112 21.6487C17.8505 21.9203 17.1923 21.7165 17.1923 21.7165C17.1923 21.7165 18.9692 20.9693 17.653 20.2219C16.3366 19.4747 16.6657 18.5915 16.7975 18.9992C16.9291 19.4067 18.2453 20.1541 19.8249 18.9312C19.8334 18.9247 19.8414 18.917 19.8498 18.9103C19.408 19.7421 18.8097 20.8744 18.4393 21.5981Z" fill="#038C73"/>
</svg>
